<?xml version="1.0" standalone="no"?>
<!DOCTYPE svg PUBLIC "-//W3C//DTD SVG 20010904//EN"
 "http://www.w3.org/TR/2001/REC-SVG-20010904/DTD/svg10.dtd">
<svg version="1.0" xmlns="http://www.w3.org/2000/svg"
 width="512.000000pt" height="512.000000pt" viewBox="0 0 512.000000 512.000000"
 preserveAspectRatio="xMidYMid meet">

<g transform="translate(0.000000,512.000000) scale(0.100000,-0.100000)"
fill="#000000" stroke="none">
<path d="M2330 4975 c-723 -99 -1304 -633 -1464 -1346 -86 -384 -38 -748 150
-1139 136 -281 218 -403 827 -1223 251 -337 533 -777 673 -1051 22 -42 41 -76
44 -76 3 0 22 34 44 76 181 353 407 695 858 1302 388 520 505 697 627 942 197
398 250 751 171 1139 -166 815 -883 1397 -1713 1390 -67 -1 -165 -7 -217 -14z
m445 -1059 c287 -97 478 -361 478 -661 0 -300 -189 -561 -478 -661 -72 -26
-93 -28 -215 -28 -122 0 -143 2 -215 28 -226 78 -404 269 -461 496 -22 85 -22
245 0 330 64 254 272 456 531 516 96 22 262 13 360 -20z"/>
</g>
</svg>
